<svg width="34" height="34" viewBox="0 0 34 34" fill="none" xmlns="http://www.w3.org/2000/svg">
<path d="M21.2099 24.8129H31.6666V24.3676C31.6666 22.8939 31.1158 21.4806 30.1353 20.4385C29.1548 19.3965 27.8249 18.811 26.4383 18.811C25.0516 18.811 23.7218 19.3965 22.7413 20.4385C21.7608 21.4806 21.2099 22.8939 21.2099 24.3676V24.8129ZM30.8089 23.9222H22.0677C22.1736 22.7685 22.6798 21.6979 23.4877 20.9189C24.2955 20.14 25.3473 19.7086 26.4381 19.7086C27.5289 19.7086 28.5806 20.14 29.3885 20.9189C30.1964 21.6979 30.7025 22.7685 30.8084 23.9222H30.8089Z" fill="#B8B8B8"/>
<path d="M26.4315 28.999C27.5868 28.9971 28.6943 28.5086 29.5112 27.6404C30.3281 26.7722 30.7878 25.5952 30.7896 24.3674H29.9515C29.9515 25.3585 29.581 26.3089 28.9217 27.0096C28.2623 27.7104 27.368 28.1041 26.4355 28.1041C25.503 28.1041 24.6087 27.7104 23.9494 27.0096C23.29 26.3089 22.9196 25.3585 22.9196 24.3674H22.0815C22.0815 25.5943 22.5396 26.7711 23.3551 27.6395C24.1707 28.5078 25.2771 28.9968 26.4315 28.999Z" fill="#B8B8B8"/>
<path d="M10.9836 29C11.6505 28.9974 12.3079 28.8327 12.9057 28.5187C13.5035 28.2046 14.0258 27.7494 14.4327 27.188C14.8396 26.6265 15.1203 25.9735 15.2534 25.2791C15.3864 24.5846 15.3683 23.867 15.2004 23.1812L14.39 23.4096C14.5175 23.9243 14.5402 24.462 14.4568 24.9868C14.3733 25.5116 14.1856 26.0115 13.906 26.4531C13.6264 26.8947 13.2615 27.2678 12.8356 27.5477C12.4096 27.8276 11.9324 28.0078 11.4357 28.0762C10.9391 28.1446 10.4344 28.0997 9.95536 27.9445C9.47632 27.7893 9.03392 27.5274 8.65765 27.1761C8.28139 26.8249 7.9799 26.3924 7.77329 25.9076C7.56669 25.4228 7.45971 24.8967 7.4595 24.3644C7.46055 24.0405 7.49897 23.7179 7.57389 23.4038L6.76096 23.1878C6.66934 23.5726 6.62248 23.9679 6.62142 24.3649C6.62297 25.5938 7.08308 26.772 7.90084 27.6409C8.7186 28.5098 9.82724 28.9986 10.9836 29Z" fill="#B8B8B8"/>
<path d="M5.80164 23.7431H21.7352V22.8524H6.70802C6.88752 21.3068 7.43406 19.8351 8.29621 18.5758C9.15836 17.3165 10.3078 16.311 11.6363 15.6539L11.7155 15.6129L11.351 14.8113L11.2709 14.8523C9.73918 15.6104 8.42669 16.7911 7.47015 18.2715C6.51362 19.7519 5.948 21.4777 5.83222 23.2693L5.80164 23.7431Z" fill="#B8B8B8"/>
<path d="M27.1536 19.4068H27.9917V17.3979C27.9882 14.6418 27.1117 11.9672 25.5034 9.80519L25.0128 9.14697L24.3561 9.70009L24.8468 10.3583C26.338 12.3628 27.1508 14.8425 27.154 17.3979L27.1536 19.4068Z" fill="#B8B8B8"/>
<path d="M20.3997 19.6982C20.7841 19.6959 21.1678 19.6624 21.5474 19.598C22.0732 19.5342 22.5811 19.3565 23.0398 19.0759C23.4984 18.7954 23.8981 18.4179 24.2142 17.9667C26.2033 14.9068 23.6832 10.2961 23.5751 10.1011L22.8535 10.554C22.8774 10.5985 25.209 14.8698 23.524 17.4604C23.2722 17.8111 22.9556 18.1035 22.5938 18.3196C22.2319 18.5358 21.8324 18.6712 21.4196 18.7176C20.103 18.9322 19.1396 18.7621 18.4733 18.1974C17.8272 17.6492 17.4542 16.6993 17.3658 15.3748L16.5277 15.4381C16.6338 17.0213 17.1119 18.1841 17.9487 18.8935C18.6527 19.4567 19.5194 19.7413 20.3997 19.6982Z" fill="#B8B8B8"/>
<path d="M22.744 10.773H23.6332V5H22.744C22.0455 5.00083 21.3759 5.29608 20.882 5.82098C20.3881 6.34588 20.1103 7.05756 20.1095 7.79988V7.97312C20.1103 8.71544 20.3881 9.42712 20.882 9.95202C21.3759 10.4769 22.0455 10.7722 22.744 10.773ZM22.7951 9.88231H22.744C22.2677 9.88172 21.8112 9.68037 21.4745 9.32244C21.1378 8.96451 20.9484 8.47924 20.948 7.97312V7.79988C20.9484 7.29367 21.1378 6.80834 21.4746 6.4504C21.8114 6.09246 22.2681 5.89116 22.7444 5.89069H22.7951V9.88231Z" fill="#B8B8B8"/>
<path d="M23.6207 10.1412C24.1834 10.1412 24.723 9.90366 25.1208 9.48085C25.5186 9.05803 25.7421 8.48458 25.7421 7.88664C25.7421 7.28869 25.5186 6.71523 25.1208 6.29242C24.723 5.86961 24.1834 5.63208 23.6207 5.63208C23.4455 5.63335 23.2712 5.65941 23.1024 5.70957L23.3232 6.56908C23.4201 6.54053 23.5202 6.52556 23.6207 6.52455C23.9611 6.52455 24.2875 6.66824 24.5282 6.92402C24.7688 7.17979 24.904 7.5267 24.904 7.88842C24.904 8.25014 24.7688 8.59704 24.5282 8.85282C24.2875 9.10859 23.9611 9.25228 23.6207 9.25228C23.5202 9.25127 23.4201 9.2363 23.3232 9.20775L23.1024 10.0673C23.2713 10.1162 23.4456 10.1411 23.6207 10.1412Z" fill="#B8B8B8"/>
<path d="M11.8458 15.6573H16.9766C17.3629 15.6573 17.7335 15.4942 18.0067 15.2038C18.2799 14.9134 18.4333 14.5196 18.4333 14.109C18.4333 13.6984 18.2799 13.3046 18.0067 13.0143C17.7335 12.7239 17.3629 12.5608 16.9766 12.5608H11.8458C11.4595 12.5608 11.0889 12.7239 10.8157 13.0143C10.5425 13.3046 10.3891 13.6984 10.3891 14.109C10.3891 14.5196 10.5425 14.9134 10.8157 15.2038C11.0889 15.4942 11.4595 15.6573 11.8458 15.6573ZM16.9766 13.4515C17.1407 13.4515 17.298 13.5208 17.4141 13.6441C17.5301 13.7674 17.5953 13.9346 17.5953 14.109C17.5953 14.2834 17.5301 14.4507 17.4141 14.574C17.298 14.6973 17.1407 14.7666 16.9766 14.7666H11.8458C11.6818 14.7666 11.5244 14.6973 11.4084 14.574C11.2923 14.4507 11.2271 14.2834 11.2271 14.109C11.2271 13.9346 11.2923 13.7674 11.4084 13.6441C11.5244 13.5208 11.6818 13.4515 11.8458 13.4515H16.9766Z" fill="#B8B8B8"/>
<path d="M7.53032 18.7141L8.13416 18.0965L4.55473 14.1414V13.0044H3.71665V14.5003L7.53032 18.7141Z" fill="#B8B8B8"/>
<path d="M2.33331 13.4512H10.295V5.88037H2.33331V13.4512ZM9.45697 12.5605H3.17138V6.77106H9.45697V12.5605Z" fill="#B8B8B8"/>
<path d="M11.847 12.5608H9.71324V13.4515H11.847V12.5608Z" fill="#B8B8B8"/>
<path d="M1 33L33 1" stroke="#B8B8B8" stroke-linecap="round"/>
</svg>
