<svg width="44" height="44" viewBox="0 0 44 44" fill="none" xmlns="http://www.w3.org/2000/svg">
<path d="M38.9252 13.7384L35.0878 7.62714C34.7449 7.07855 34.1359 6.74231 33.4855 6.74231H9.5981C8.9477 6.74231 8.33869 7.07855 7.99575 7.62714L4.1584 13.7384C2.40823 16.5227 3.56713 20.2626 6.40523 21.4542V34.8683C6.40523 36.0127 7.25075 36.9447 8.2973 36.9447H34.7863C35.8328 36.9447 36.6784 36.0127 36.6784 34.8683V21.4542C39.5165 20.2626 40.6754 16.5227 38.9252 13.7384ZM34.7863 34.8683C34.7863 34.9862 34.739 35.0511 34.7745 35.057L8.36826 35.0747C8.35052 35.0629 8.2973 34.998 8.2973 34.8683V27.5064H34.7863V34.8683ZM8.2973 25.6188V21.8435H8.44512C10.1953 21.8435 11.7444 21.0766 12.8087 19.891C13.873 21.0766 15.428 21.8435 17.1723 21.8435C18.9225 21.8435 20.4716 21.0766 21.5359 19.891C22.6002 21.0766 24.1552 21.8435 25.8995 21.8435C27.6496 21.8435 29.1988 21.0766 30.2631 19.891C31.3333 21.0766 32.8824 21.8435 34.6326 21.8435H34.7804V25.6188H8.2973ZM37.518 18.1567C37.0568 19.1359 36.2113 19.7789 35.1943 19.9146C35.011 19.9382 34.8277 19.9499 34.6385 19.9499C33.4973 19.9499 32.4508 19.478 31.6821 18.6227L30.2749 17.0654L28.8677 18.6345C28.099 19.4898 27.0524 19.9617 25.9113 19.9617C24.7701 19.9617 23.7236 19.4898 22.9549 18.6345L21.5418 17.0654L20.1346 18.6345C19.3659 19.4898 18.3194 19.9617 17.1782 19.9617C16.0371 19.9617 14.9905 19.4898 14.2218 18.6345L12.8087 17.0654L11.4015 18.6345C10.6328 19.4898 9.58628 19.9617 8.44512 19.9617C8.25591 19.9617 8.07262 19.9499 7.88933 19.9264C6.87234 19.7907 6.02682 19.1477 5.56563 18.1685C5.05122 17.0713 5.12217 15.7617 5.76075 14.753L9.5981 8.62996H33.4855L37.3228 14.7412C37.9614 15.7558 38.0324 17.0595 37.518 18.1567Z" fill="#444444"/>
</svg>
