<svg width="44" height="44" viewBox="0 0 44 44" fill="none" xmlns="http://www.w3.org/2000/svg">
<path d="M41.6625 29.3333H40.15V23.1401C40.15 22.1776 39.7215 21.2323 38.9652 20.5505L33.6778 15.7437C32.9342 15.0562 31.8943 14.6666 30.8293 14.6666H28.05V11.8364C28.05 10.364 26.651 9.16663 24.9368 9.16663H4.9466C3.23244 9.16663 1.83337 10.364 1.83337 11.8364V28.4968C1.83337 29.9692 3.23244 31.1666 4.9466 31.1666H5.96754C5.89822 31.4645 5.86671 31.7682 5.86671 32.0833C5.86671 34.6156 8.12285 36.6666 10.9084 36.6666C13.6939 36.6666 15.95 34.6156 15.95 32.0833C15.95 31.7682 15.9122 31.4645 15.8492 31.1666H28.1509C28.0815 31.4645 28.05 31.7682 28.05 32.0833C28.05 34.6156 30.3062 36.6666 33.0917 36.6666C35.8772 36.6666 38.1334 34.6156 38.1334 32.0833C38.1334 31.7682 38.0956 31.4645 38.0325 31.1666H41.6625C41.9398 31.1666 42.1667 30.9604 42.1667 30.7083V29.7916C42.1667 29.5395 41.9398 29.3333 41.6625 29.3333ZM30.8293 16.5C31.3586 16.5 31.8817 16.6948 32.2535 17.0385L37.541 21.8453C37.5914 21.8911 37.6103 21.9541 37.6544 22.0057H28.05V16.5057H30.8293V16.5ZM10.9084 34.8333C9.23832 34.8333 7.88337 33.6015 7.88337 32.0833C7.88337 30.5651 9.23832 29.3333 10.9084 29.3333C12.5784 29.3333 13.9334 30.5651 13.9334 32.0833C13.9334 33.6015 12.5784 34.8333 10.9084 34.8333ZM14.9165 29.3333C13.9964 28.2276 12.5469 27.5 10.9084 27.5C9.26983 27.5 7.82035 28.2276 6.90025 29.3333H4.9466C4.3416 29.3333 3.85004 28.9609 3.85004 28.4968V11.8364C3.85004 11.3724 4.3416 11 4.9466 11H24.9368C25.5418 11 26.0334 11.3724 26.0334 11.8364V29.3333H14.9165ZM33.0917 34.8333C31.4216 34.8333 30.0667 33.6015 30.0667 32.0833C30.0667 30.5651 31.4216 29.3333 33.0917 29.3333C34.7618 29.3333 36.1167 30.5651 36.1167 32.0833C36.1167 33.6015 34.7618 34.8333 33.0917 34.8333ZM33.0917 27.5C31.4469 27.5 30.0037 28.2276 29.0836 29.3333H28.05V23.8333H38.1334V29.3333H37.0998C36.1797 28.2276 34.7365 27.5 33.0917 27.5Z" fill="#444444"/>
</svg>
