<svg width="32" height="32" viewBox="0 0 32 32" fill="none" xmlns="http://www.w3.org/2000/svg">
<g clip-path="url(#clip0)">
<path d="M30.3 21.3334H29.2V16.8292C29.2 16.1292 28.8883 15.4417 28.3383 14.9459L24.4929 11.4501C23.9521 10.9501 23.1958 10.6667 22.4212 10.6667H20.4V8.60841C20.4 7.53758 19.3825 6.66675 18.1358 6.66675H3.59748C2.35081 6.66675 1.33331 7.53758 1.33331 8.60841V20.7251C1.33331 21.7959 2.35081 22.6667 3.59748 22.6667H4.33998C4.28956 22.8834 4.26665 23.1042 4.26665 23.3334C4.26665 25.1751 5.90748 26.6667 7.93331 26.6667C9.95915 26.6667 11.6 25.1751 11.6 23.3334C11.6 23.1042 11.5725 22.8834 11.5266 22.6667H20.4733C20.4229 22.8834 20.4 23.1042 20.4 23.3334C20.4 25.1751 22.0408 26.6667 24.0666 26.6667C26.0925 26.6667 27.7333 25.1751 27.7333 23.3334C27.7333 23.1042 27.7058 22.8834 27.66 22.6667H30.3C30.5016 22.6667 30.6666 22.5167 30.6666 22.3334V21.6667C30.6666 21.4834 30.5016 21.3334 30.3 21.3334ZM22.4212 12.0001C22.8062 12.0001 23.1866 12.1417 23.4571 12.3917L27.3025 15.8876C27.3391 15.9209 27.3529 15.9667 27.385 16.0042H20.4V12.0042H22.4212V12.0001ZM7.93331 25.3334C6.71873 25.3334 5.73331 24.4376 5.73331 23.3334C5.73331 22.2292 6.71873 21.3334 7.93331 21.3334C9.1479 21.3334 10.1333 22.2292 10.1333 23.3334C10.1333 24.4376 9.1479 25.3334 7.93331 25.3334ZM10.8483 21.3334C10.1791 20.5292 9.12498 20.0001 7.93331 20.0001C6.74165 20.0001 5.68748 20.5292 5.01831 21.3334H3.59748C3.15748 21.3334 2.79998 21.0626 2.79998 20.7251V8.60841C2.79998 8.27091 3.15748 8.00008 3.59748 8.00008H18.1358C18.5758 8.00008 18.9333 8.27091 18.9333 8.60841V21.3334H10.8483ZM24.0666 25.3334C22.8521 25.3334 21.8666 24.4376 21.8666 23.3334C21.8666 22.2292 22.8521 21.3334 24.0666 21.3334C25.2812 21.3334 26.2666 22.2292 26.2666 23.3334C26.2666 24.4376 25.2812 25.3334 24.0666 25.3334ZM24.0666 20.0001C22.8704 20.0001 21.8208 20.5292 21.1516 21.3334H20.4V17.3334H27.7333V21.3334H26.9816C26.3125 20.5292 25.2629 20.0001 24.0666 20.0001Z" fill="#B8B8B8"/>
<path d="M0 32L32 0" stroke="#B8B8B8" stroke-linecap="round"/>
</g>
<defs>
<clipPath id="clip0">
<rect width="32" height="32" fill="white"/>
</clipPath>
</defs>
</svg>
