<svg width="34" height="34" viewBox="0 0 34 34" fill="none" xmlns="http://www.w3.org/2000/svg">
<path d="M30.3492 10.5066L27.3288 5.69646C27.0588 5.26465 26.5795 5 26.0676 5H7.26574C6.75381 5 6.27445 5.26465 6.00452 5.69646L2.98413 10.5066C1.60657 12.6982 2.51874 15.6418 4.75262 16.5797V27.138C4.75262 28.0388 5.41813 28.7724 6.24187 28.7724H27.0914C27.9152 28.7724 28.5807 28.0388 28.5807 27.138V16.5797C30.8145 15.6418 31.7267 12.6982 30.3492 10.5066ZM27.0914 27.138C27.0914 27.2309 27.0542 27.2819 27.0821 27.2866L6.29772 27.3005C6.28376 27.2912 6.24187 27.2402 6.24187 27.138V21.3435H27.0914V27.138ZM6.24187 19.8577V16.8862H6.35822C7.73578 16.8862 8.95511 16.2826 9.79281 15.3493C10.6305 16.2826 11.8545 16.8862 13.2274 16.8862C14.605 16.8862 15.8243 16.2826 16.662 15.3493C17.4997 16.2826 18.7237 16.8862 20.0966 16.8862C21.4741 16.8862 22.6935 16.2826 23.5312 15.3493C24.3735 16.2826 25.5929 16.8862 26.9704 16.8862H27.0868V19.8577H6.24187ZM29.2415 13.9843C28.8785 14.755 28.213 15.2611 27.4125 15.3679C27.2683 15.3865 27.124 15.3958 26.9751 15.3958C26.0769 15.3958 25.2531 15.0243 24.6481 14.3511L23.5405 13.1253L22.4328 14.3604C21.8278 15.0336 21.0041 15.405 20.1059 15.405C19.2077 15.405 18.3839 15.0336 17.7789 14.3604L16.6666 13.1253L15.559 14.3604C14.954 15.0336 14.1303 15.405 13.2321 15.405C12.3338 15.405 11.5101 15.0336 10.9051 14.3604L9.79281 13.1253L8.68518 14.3604C8.08017 15.0336 7.25643 15.405 6.35822 15.405C6.2093 15.405 6.06503 15.3958 5.92075 15.3772C5.12028 15.2704 4.45477 14.7643 4.09177 13.9936C3.68687 13.13 3.74272 12.0992 4.24534 11.3052L7.26574 6.48577H26.0676L29.0879 11.296C29.5906 12.0946 29.6464 13.1207 29.2415 13.9843Z" fill="#B8B8B8"/>
<path d="M1 33L33 1" stroke="#B8B8B8" stroke-linecap="round"/>
</svg>
