<svg width="51" height="44" viewBox="0 0 51 44" fill="none" xmlns="http://www.w3.org/2000/svg">
<path d="M36.8892 30.3443H48.3915V29.8544C48.3915 28.2334 47.7855 26.6786 46.707 25.5324C45.6284 24.3861 44.1657 23.7422 42.6403 23.7422C41.115 23.7422 39.6521 24.3861 38.5736 25.5324C37.495 26.6786 36.8892 28.2334 36.8892 29.8544V30.3443ZM47.4479 29.3645H37.8326C37.9491 28.0953 38.5059 26.9177 39.3946 26.0609C40.2833 25.2041 41.4402 24.7294 42.6401 24.7294C43.8399 24.7294 44.9968 25.2041 45.8855 26.0609C46.7742 26.9177 47.3315 28.0953 47.4479 29.3645Z" fill="#444444"/>
<path fill-rule="evenodd" clip-rule="evenodd" d="M36.8892 30.3443V29.8544C36.8892 29.6615 36.8977 29.4694 36.9147 29.279C36.9322 29.0822 36.9586 28.8871 36.9937 28.6943C37.21 27.505 37.756 26.4013 38.5736 25.5324C38.6266 25.4761 38.6805 25.4209 38.7354 25.3671C39.796 24.3244 41.1898 23.7423 42.6401 23.7422C42.6402 23.7422 42.64 23.7422 42.6401 23.7422C44.0903 23.7422 45.4843 24.3243 46.545 25.3668C46.6 25.4208 46.654 25.476 46.707 25.5324C47.5246 26.4013 48.0707 27.505 48.2869 28.6943C48.322 28.8871 48.3485 29.0822 48.366 29.2789C48.383 29.4694 48.3915 29.6615 48.3915 29.8544V30.3443H36.8892ZM37.8326 29.3645C37.8535 29.1378 37.8884 28.9139 37.9367 28.6943C38.0111 28.356 38.1173 28.0279 38.2532 27.7145C38.4982 27.1493 38.8396 26.6324 39.2641 26.1916C39.3067 26.1472 39.3503 26.1037 39.3946 26.0609C40.2833 25.2041 41.4402 24.7294 42.6401 24.7294C42.6402 24.7294 42.64 24.7294 42.6401 24.7294C43.8398 24.7295 44.9969 25.2041 45.8855 26.0609C45.93 26.1038 45.9736 26.1474 46.0164 26.1918C46.4407 26.6325 46.782 27.1494 47.027 27.7145C47.1628 28.0279 47.2691 28.356 47.3435 28.6943C47.3919 28.9139 47.4267 29.1378 47.4475 29.3645H37.8326Z" fill="#444444"/>
<path d="M42.633 34.9488C43.9037 34.9467 45.122 34.4093 46.0206 33.4543C46.9192 32.4993 47.4248 31.2046 47.4268 29.854H46.5049C46.5049 30.9442 46.0975 31.9897 45.3721 32.7605C44.6468 33.5313 43.663 33.9644 42.6373 33.9644C41.6117 33.9644 40.6279 33.5313 39.9026 32.7605C39.1773 31.9897 38.7698 30.9442 38.7698 29.854H37.8479C37.8479 31.2037 38.3518 32.4981 39.2489 33.4533C40.146 34.4084 41.3631 34.9463 42.633 34.9488Z" fill="#444444"/>
<path fill-rule="evenodd" clip-rule="evenodd" d="M42.6314 33.9644H42.6349H42.6373C43.6456 33.9644 44.6133 33.5459 45.3348 32.7996C45.3474 32.7866 45.3598 32.7736 45.3721 32.7605C46.0975 31.9897 46.5049 30.9442 46.5049 29.854H47.4268C47.4259 30.4209 47.3364 30.9779 47.1663 31.504C46.9366 32.2144 46.5603 32.8684 46.0573 33.4147C46.0451 33.428 46.0329 33.4412 46.0206 33.4543C45.123 34.4082 43.9066 34.9455 42.6373 34.9488H42.633C41.3631 34.9463 40.146 34.4084 39.2489 33.4533C39.2375 33.4412 39.2263 33.4291 39.2151 33.4169C38.7116 32.8701 38.3353 32.2152 38.1063 31.504C37.9368 30.9778 37.8479 30.4208 37.8479 29.854H38.7698C38.7698 30.9442 39.1773 31.9897 39.9026 32.7605C39.9141 32.7727 39.9258 32.785 39.9375 32.7971C40.6579 33.5435 41.6241 33.9627 42.6314 33.9644Z" fill="#444444"/>
<path d="M25.6402 34.9501C26.3737 34.9472 27.0969 34.7661 27.7545 34.4207C28.4121 34.0752 28.9866 33.5744 29.4342 32.9568C29.8818 32.3391 30.1906 31.621 30.3369 30.8571C30.4833 30.0932 30.4634 29.3038 30.2787 28.5493L29.3873 28.8007C29.5274 29.3668 29.5525 29.9583 29.4607 30.5356C29.3689 31.1129 29.1623 31.6626 28.8549 32.1484C28.5473 32.6342 28.1459 33.0447 27.6773 33.3526C27.2088 33.6605 26.6838 33.8587 26.1375 33.9339C25.5912 34.0092 25.0361 33.9598 24.5091 33.7891C23.9822 33.6183 23.4955 33.3302 23.0816 32.9438C22.6678 32.5575 22.3361 32.0817 22.1089 31.5485C21.8816 31.0151 21.7639 30.4365 21.7637 29.8509C21.7648 29.4945 21.807 29.1397 21.8895 28.7943L20.9952 28.5567C20.8945 28.98 20.8429 29.4148 20.8418 29.8515C20.8434 31.2033 21.3497 32.4993 22.2491 33.4551C23.1487 34.4109 24.3682 34.9486 25.6402 34.9501Z" fill="#444444"/>
<path fill-rule="evenodd" clip-rule="evenodd" d="M21.7637 29.8539C21.7643 30.4383 21.882 31.0161 22.1089 31.5485C22.3086 32.0173 22.5891 32.4417 22.9352 32.7999C22.9828 32.8491 23.0317 32.8972 23.0816 32.9438C23.4955 33.3302 23.9822 33.6183 24.5091 33.7891C24.8754 33.9077 25.2553 33.9678 25.6364 33.9681C25.638 33.9681 25.6397 33.9681 25.6414 33.9681C25.8069 33.968 25.9726 33.9566 26.1375 33.9339C26.5456 33.8777 26.9418 33.7529 27.3114 33.565C27.4366 33.5013 27.5588 33.4305 27.6773 33.3526C28.0619 33.0999 28.4011 32.7783 28.6804 32.4025C28.7414 32.3203 28.7996 32.2356 28.8549 32.1484C29.1363 31.7039 29.3331 31.2056 29.4349 30.6817C29.4443 30.6332 29.4529 30.5844 29.4607 30.5356C29.5525 29.9583 29.5274 29.3668 29.3873 28.8007L30.2787 28.5493C30.2808 28.5579 30.2829 28.5665 30.2849 28.5751C30.4141 29.1142 30.4593 29.6709 30.4199 30.223C30.4089 30.3764 30.3916 30.5295 30.3675 30.6819C30.3582 30.7404 30.3481 30.7988 30.3369 30.8571C30.214 31.4984 29.9766 32.1076 29.6388 32.6521C29.5743 32.756 29.5059 32.8578 29.4342 32.9568C29.0903 33.4313 28.6715 33.8369 28.1976 34.156C28.0547 34.2523 27.9069 34.3406 27.7545 34.4207C27.286 34.6667 26.7842 34.8294 26.2692 34.9037C26.0613 34.9337 25.8512 34.9492 25.6402 34.9501C25.1516 34.9496 24.6707 34.8698 24.2126 34.7177C23.5596 34.5006 22.9531 34.1364 22.4371 33.6444C22.3731 33.5832 22.3104 33.5201 22.2491 33.4551C21.8278 33.0074 21.4928 32.4851 21.2555 31.9174C21.0332 31.3854 20.8966 30.8136 20.8552 30.2259C20.8464 30.1017 20.8419 29.9768 20.8418 29.8515C20.8418 29.8503 20.8418 29.8491 20.8418 29.848C20.8432 29.4193 20.8932 28.9925 20.9905 28.5766C20.9922 28.57 20.9937 28.5633 20.9952 28.5567L21.8895 28.7943C21.8072 29.1395 21.7649 29.4941 21.7637 29.8503C21.7637 29.8501 21.7637 29.8505 21.7637 29.8503C21.7637 29.8513 21.7637 29.8529 21.7637 29.8539Z" fill="#444444"/>
<path d="M19.9402 29.1673H37.467V28.1876H20.9371C21.1346 26.4873 21.7358 24.8685 22.6841 23.4832C23.6326 22.098 24.8969 20.992 26.3584 20.2691L26.4454 20.224L26.0444 19.3423L25.9563 19.3874C24.2714 20.2214 22.8277 21.5202 21.7755 23.1485C20.7233 24.7769 20.1011 26.6753 19.9737 28.6461L19.9402 29.1673Z" fill="#444444"/>
<path fill-rule="evenodd" clip-rule="evenodd" d="M37.467 28.1876V29.1673H19.9402L19.9737 28.6461C19.9861 28.4567 20.0029 28.2679 20.0241 28.0799C20.0456 27.8915 20.0715 27.7039 20.1019 27.5173C20.3566 25.9544 20.9259 24.4634 21.7755 23.1485C21.8196 23.0802 21.8644 23.0125 21.91 22.9454C22.6507 21.8525 23.5711 20.9159 24.6231 20.1787C25.0356 19.8898 25.4683 19.6314 25.9184 19.4063C25.9235 19.4037 25.9287 19.4011 25.934 19.3985C25.9415 19.3948 25.9488 19.3911 25.9563 19.3874L26.0444 19.3423L26.4454 20.224L26.3584 20.2691C24.8969 20.992 23.6326 22.098 22.6841 23.4832C22.643 23.5433 22.6026 23.6038 22.5628 23.6647C21.9872 24.5456 21.549 25.5157 21.2622 26.5376C21.1719 26.8594 21.0965 27.1864 21.0366 27.5173C20.9965 27.739 20.9633 27.9625 20.9371 28.1876H37.467Z" fill="#444444"/>
<path d="M43.4271 24.3977H44.349V22.1878C44.3452 19.1561 43.381 16.2141 41.6119 13.8359L41.0721 13.1118L40.3499 13.7202L40.8896 14.4443C42.5299 16.6492 43.4239 19.377 43.4275 22.1878L43.4271 24.3977Z" fill="#444444"/>
<path fill-rule="evenodd" clip-rule="evenodd" d="M43.4271 24.3977H44.349V22.188C44.349 22.1876 44.349 22.187 44.349 22.1866C44.3453 19.4101 43.536 16.7087 42.0407 14.4469C41.9127 14.2534 41.7797 14.0632 41.6419 13.8764C41.6421 13.8766 41.6417 13.8761 41.6419 13.8764C41.6321 13.8631 41.6218 13.8491 41.6119 13.8359L41.0721 13.1118L40.3499 13.7202L40.8896 14.4443C42.5299 16.6492 43.4239 19.377 43.4275 22.1878L43.4271 24.3977Z" fill="#444444"/>
<path d="M35.9979 24.718C36.4207 24.7154 36.8428 24.6786 37.2604 24.6078C37.8388 24.5375 38.3975 24.3422 38.902 24.0335C39.4065 23.7249 39.8462 23.3096 40.1938 22.8134C42.3819 19.4474 39.6098 14.3757 39.4909 14.1611L38.6971 14.6593C38.7234 14.7083 41.2881 19.4068 39.4347 22.2564C39.1576 22.6421 38.8095 22.9638 38.4115 23.2016C38.0134 23.4394 37.5739 23.5883 37.1199 23.6393C35.6715 23.8754 34.6119 23.6883 33.8789 23.0672C33.1681 22.4641 32.7579 21.4191 32.6607 19.9623L31.7388 20.0318C31.8554 21.7733 32.3813 23.0524 33.3019 23.8328C34.0762 24.4524 35.0296 24.7655 35.9979 24.718Z" fill="#444444"/>
<path fill-rule="evenodd" clip-rule="evenodd" d="M35.9919 23.7378C36.3324 23.7384 36.7011 23.7066 37.0993 23.6427C37.1061 23.6416 37.1129 23.6405 37.1199 23.6393C37.1279 23.6384 37.136 23.6374 37.1442 23.6365C37.5866 23.5833 38.0146 23.4371 38.4033 23.2063C38.4061 23.2048 38.4087 23.2031 38.4115 23.2016C38.7964 22.9716 39.1346 22.6632 39.407 22.2943C39.4135 22.2855 39.42 22.2767 39.4264 22.2678C39.4292 22.2641 39.4319 22.2602 39.4347 22.2564C41.2741 19.4284 38.7619 14.7793 38.6981 14.6612C38.6977 14.6603 38.6974 14.6597 38.6971 14.6593L39.4909 14.1611C39.4959 14.17 39.5053 14.1872 39.5187 14.2122C39.6105 14.3829 39.8883 14.9186 40.1814 15.6718C40.8801 17.4679 41.6651 20.5011 40.2191 22.7741C40.2113 22.7863 40.2034 22.7985 40.1955 22.8108C40.1949 22.8116 40.1944 22.8125 40.1938 22.8134C39.8462 23.3096 39.4065 23.7249 38.902 24.0335C38.9022 24.0334 38.9019 24.0336 38.902 24.0335C38.4019 24.3393 37.8481 24.5342 37.2751 24.606C37.2702 24.6066 37.2653 24.6072 37.2604 24.6078C37.2494 24.6097 37.2385 24.6115 37.2277 24.6133C36.8208 24.6804 36.4097 24.7155 35.9979 24.718C35.0296 24.7655 34.0762 24.4524 33.3019 23.8328C33.2897 23.8225 33.2776 23.8121 33.2655 23.8015C33.2656 23.8016 33.2653 23.8015 33.2655 23.8015C32.6814 23.292 32.2595 22.5769 32.0046 21.6664C31.8793 21.2187 31.7943 20.7236 31.75 20.1824C31.7459 20.1326 31.7422 20.0824 31.7388 20.0318L32.6607 19.9623C32.6608 19.9646 32.661 19.9669 32.6611 19.9691C32.6641 20.0138 32.6674 20.0581 32.671 20.1019C32.7846 21.4861 33.1911 22.4835 33.8789 23.0672C33.8842 23.0717 33.8896 23.0761 33.8949 23.0806C33.9019 23.0864 33.9088 23.0921 33.9159 23.0979C34.4304 23.5175 35.1018 23.7296 35.9506 23.7376C35.9643 23.7377 35.9781 23.7378 35.9919 23.7378Z" fill="#444444"/>
<path d="M38.5767 14.9001H39.5548V8.5498H38.5767C37.8083 8.55071 37.0716 8.87549 36.5284 9.45288C35.9851 10.0303 35.6795 10.8131 35.6787 11.6297V11.8202C35.6795 12.6368 35.9851 13.4196 36.5284 13.997C37.0716 14.5744 37.8083 14.8992 38.5767 14.9001ZM38.6329 13.9203H38.5767C38.0527 13.9197 37.5506 13.6982 37.1802 13.3045C36.8098 12.9108 36.6015 12.377 36.6011 11.8202V11.6297C36.6015 11.0729 36.8098 10.539 37.1803 10.1452C37.5508 9.75151 38.0532 9.53008 38.5771 9.52956H38.6329V13.9203Z" fill="#444444"/>
<path fill-rule="evenodd" clip-rule="evenodd" d="M39.5548 14.9001V8.5498H38.5771C38.5772 8.5498 38.5769 8.5498 38.5771 8.5498C38.3532 8.55011 38.1312 8.5779 37.9168 8.6314C37.3953 8.76154 36.9134 9.04381 36.5284 9.45288C36.5168 9.46516 36.5054 9.47753 36.494 9.49C35.9724 10.0634 35.6797 10.83 35.6787 11.6288C35.6787 11.6291 35.6787 11.6286 35.6787 11.6288V11.8202C35.6787 11.8205 35.6787 11.82 35.6787 11.8202C35.6797 12.619 35.9723 13.3863 36.4938 13.9597C36.5053 13.9722 36.5168 13.9847 36.5284 13.997C36.9134 14.4061 37.3953 14.6884 37.9168 14.8185C38.1309 14.872 38.3518 14.8997 38.5755 14.9001M36.9949 13.0771C37.0511 13.157 37.113 13.2331 37.1802 13.3045C37.1918 13.3169 37.2035 13.329 37.2154 13.3411C37.418 13.546 37.6575 13.7011 37.9168 13.799C38.1266 13.8783 38.3496 13.9201 38.5767 13.9203H38.6329V9.52956H38.5778C38.5779 9.52956 38.5777 9.52956 38.5778 9.52956C38.3507 9.52984 38.1266 9.57159 37.9168 9.65085C37.6575 9.74876 37.418 9.90392 37.2154 10.1089C37.2036 10.1208 37.1919 10.1329 37.1803 10.1452C37.1131 10.2167 37.0512 10.2928 36.9949 10.3728C36.7411 10.7336 36.6014 11.1739 36.6011 11.6297V11.8193C36.6014 12.275 36.7411 12.7164 36.9949 13.0771Z" fill="#444444"/>
<path d="M39.5412 14.2051C40.16 14.2051 40.7536 13.9439 41.1912 13.4788C41.6288 13.0137 41.8746 12.3829 41.8746 11.7251C41.8746 11.0674 41.6288 10.4366 41.1912 9.97149C40.7536 9.5064 40.16 9.24512 39.5412 9.24512C39.3484 9.24651 39.1566 9.27518 38.9709 9.33036L39.2138 10.2758C39.3205 10.2444 39.4305 10.2279 39.5412 10.2268C39.9155 10.2268 40.2746 10.3849 40.5393 10.6663C40.8041 10.9476 40.9528 11.3292 40.9528 11.7271C40.9528 12.125 40.8041 12.5066 40.5393 12.7879C40.2746 13.0693 39.9155 13.2273 39.5412 13.2273C39.4305 13.2262 39.3205 13.2098 39.2138 13.1784L38.9709 14.1238C39.1567 14.1777 39.3486 14.205 39.5412 14.2051Z" fill="#444444"/>
<path fill-rule="evenodd" clip-rule="evenodd" d="M39.5481 10.2269C39.5458 10.2268 39.5435 10.2268 39.5412 10.2268C39.4557 10.2277 39.3708 10.2377 39.2874 10.2566C39.2733 10.2599 39.2593 10.2633 39.2453 10.267C39.2347 10.2698 39.2243 10.2727 39.2138 10.2758L38.9709 9.33036C39.0157 9.31705 39.0609 9.30527 39.1064 9.29506C39.2461 9.26365 39.3884 9.24693 39.5314 9.24522C39.5347 9.24517 39.5379 9.24514 39.5412 9.24512C39.9629 9.24512 40.3729 9.36648 40.7298 9.59101C40.8966 9.69593 41.0518 9.82338 41.1912 9.97149C41.2032 9.98421 41.2149 9.99704 41.2266 10.01C41.6421 10.4711 41.8746 11.0854 41.8746 11.7251C41.8746 11.7258 41.8746 11.7264 41.8746 11.7271C41.8742 12.3671 41.641 12.9815 41.2247 13.4424C41.2136 13.4546 41.2025 13.4667 41.1912 13.4788C41.0521 13.6265 40.8974 13.7537 40.7311 13.8585C40.3739 14.0835 39.9634 14.2051 39.5412 14.2051C39.5379 14.2051 39.5347 14.2051 39.5314 14.2051C39.3793 14.2043 39.2276 14.1865 39.0791 14.152C39.0429 14.1436 39.0068 14.1342 38.9709 14.1238L39.2138 13.1784C39.2222 13.1808 39.2305 13.1832 39.2389 13.1854C39.2551 13.1898 39.2711 13.1938 39.2874 13.1975C39.3708 13.2165 39.4557 13.2265 39.5412 13.2273C39.541 13.2273 39.5413 13.2273 39.5412 13.2273C39.8993 13.2272 40.244 13.0824 40.5048 12.8234C40.5164 12.8118 40.528 12.8 40.5393 12.7879C40.8041 12.5066 40.9528 12.125 40.9528 11.7271C40.9528 11.7264 40.9528 11.7258 40.9528 11.7251C40.9523 11.3279 40.8037 10.9471 40.5393 10.6663C40.5273 10.6535 40.5151 10.641 40.5028 10.6288C40.2438 10.3726 39.9031 10.2287 39.5481 10.2269Z" fill="#444444"/>
<path d="M26.5888 20.2728H32.2326C32.6575 20.2728 33.0652 20.0934 33.3657 19.774C33.6662 19.4546 33.8351 19.0215 33.8351 18.5698C33.8351 18.1181 33.6662 17.6849 33.3657 17.3655C33.0652 17.0461 32.6575 16.8667 32.2326 16.8667H26.5888C26.1638 16.8667 25.7562 17.0461 25.4557 17.3655C25.1552 17.6849 24.9863 18.1181 24.9863 18.5698C24.9863 19.0215 25.1552 19.4546 25.4557 19.774C25.7562 20.0934 26.1638 20.2728 26.5888 20.2728ZM32.2326 17.8465C32.4131 17.8465 32.5861 17.9227 32.7138 18.0583C32.8414 18.194 32.9131 18.3779 32.9131 18.5698C32.9131 18.7616 32.8414 18.9456 32.7138 19.0812C32.5861 19.2168 32.4131 19.293 32.2326 19.293H26.5888C26.4083 19.293 26.2352 19.2168 26.1076 19.0812C25.9798 18.9456 25.9081 18.7616 25.9081 18.5698C25.9081 18.3779 25.9798 18.194 26.1076 18.0583C26.2352 17.9227 26.4083 17.8465 26.5888 17.8465H32.2326Z" fill="#444444"/>
<path fill-rule="evenodd" clip-rule="evenodd" d="M26.5888 17.8465C26.4248 17.8465 26.2669 17.9093 26.1437 18.0225C26.1313 18.0339 26.1192 18.0459 26.1076 18.0583C25.9798 18.194 25.9081 18.3779 25.9081 18.5698C25.9081 18.7616 25.9798 18.9456 26.1076 19.0812C26.1192 19.0936 26.1313 19.1056 26.1437 19.117C26.2669 19.2302 26.4248 19.293 26.5888 19.293H32.2326C32.3965 19.293 32.5543 19.2302 32.6775 19.117C32.69 19.1056 32.7021 19.0936 32.7138 19.0812C32.8414 18.9456 32.9131 18.7616 32.9131 18.5698C32.9131 18.3779 32.8414 18.194 32.7138 18.0583C32.7021 18.0459 32.69 18.0339 32.6775 18.0225C32.5543 17.9093 32.3965 17.8465 32.2326 17.8465H26.5888ZM32.2326 20.2728H26.5888C26.1638 20.2728 25.7562 20.0934 25.4557 19.774C25.444 19.7616 25.4326 19.7491 25.4214 19.7363C25.1423 19.4211 24.9863 19.004 24.9863 18.5698C24.9863 18.1356 25.1423 17.7185 25.4214 17.4031C25.4326 17.3904 25.444 17.3779 25.4557 17.3655C25.7562 17.0461 26.1638 16.8667 26.5888 16.8667H32.2326C32.6575 16.8667 33.0652 17.0461 33.3657 17.3655C33.3773 17.3779 33.3888 17.3904 33.4 17.4031C33.679 17.7185 33.8351 18.1356 33.8351 18.5698C33.8351 19.004 33.679 19.4211 33.4 19.7363C33.3888 19.7491 33.3773 19.7616 33.3657 19.774C33.0652 20.0934 32.6575 20.2728 32.2326 20.2728Z" fill="#444444"/>
<path d="M21.8418 23.6357L22.506 22.9562L18.5686 18.6056V17.355H17.6467V19.0005L21.8418 23.6357Z" fill="#444444"/>
<path fill-rule="evenodd" clip-rule="evenodd" d="M17.6467 17.355H18.5686V18.6056L22.506 22.9562L21.8418 23.6357L17.6467 19.0005V17.355Z" fill="#444444"/>
<path d="M16.125 17.8465H24.883V9.51855H16.125V17.8465ZM23.9611 16.8667H17.0469V10.4983H23.9611V16.8667Z" fill="#444444"/>
<path fill-rule="evenodd" clip-rule="evenodd" d="M17.0469 10.4983V16.8667H23.9611V10.4983H17.0469ZM16.125 17.8465V9.51855H24.883V17.8465H16.125Z" fill="#444444"/>
<path d="M26.59 16.8667H24.2429V17.8465H26.59V16.8667Z" fill="#444444"/>
<path fill-rule="evenodd" clip-rule="evenodd" d="M24.2429 16.8667H26.59V17.8465H24.2429V16.8667Z" fill="#444444"/>
<path fill-rule="evenodd" clip-rule="evenodd" d="M6.6665 17.0653C6.6665 16.646 7.05494 16.3062 7.5341 16.3062H13.2673C13.7464 16.3062 14.1348 16.646 14.1348 17.0653C14.1348 17.4846 13.7464 17.8244 13.2673 17.8244H7.5341C7.05494 17.8244 6.6665 17.4846 6.6665 17.0653Z" fill="#444444"/>
<path fill-rule="evenodd" clip-rule="evenodd" d="M2.0083 20.5448C2.0083 20.1255 2.39674 19.7856 2.8759 19.7856H12.9088C13.388 19.7856 13.7765 20.1255 13.7765 20.5448C13.7765 20.9641 13.388 21.3039 12.9088 21.3039H2.8759C2.39674 21.3039 2.0083 20.9641 2.0083 20.5448Z" fill="#444444"/>
<path fill-rule="evenodd" clip-rule="evenodd" d="M6.6665 23.7075C6.6665 23.2881 7.05494 22.9482 7.5341 22.9482H13.2673C13.7464 22.9482 14.1348 23.2881 14.1348 23.7075C14.1348 24.1267 13.7464 24.4666 13.2673 24.4666H7.5341C7.05494 24.4666 6.6665 24.1267 6.6665 23.7075Z" fill="#444444"/>
</svg>
